<svg xmlns="http://www.w3.org/2000/svg" width="83" height="22" viewBox="0 0 83 22" fill="none">
  <path fill-rule="evenodd" clip-rule="evenodd" d="M9.95987 0.502178H3.50417C3.0624 0.502178 2.68668 0.807017 2.61779 1.22093L0.00677219 16.9382C-0.045124 17.2484 0.20785 17.528 0.539191 17.528H3.6212C4.06298 17.528 4.4387 17.2231 4.50759 16.8084L5.21181 12.5693C5.27974 12.1541 5.65638 11.8497 6.09723 11.8497H8.14088C12.3935 11.8497 14.8476 9.89579 15.4889 6.02412C15.7777 4.3303 15.5011 2.99937 14.6655 2.06702C13.7481 1.04384 12.1205 0.502178 9.95987 0.502178ZM10.7047 6.24269C10.3517 8.4421 8.58174 8.4421 6.87035 8.4421H5.89616L6.57959 4.33444C6.62017 4.08642 6.84671 3.90352 7.11104 3.90352H7.55753C8.72332 3.90352 9.82314 3.90352 10.3915 4.53435C10.73 4.91094 10.834 5.47002 10.7047 6.24269ZM29.2576 6.17219H26.1661C25.9026 6.17219 25.6751 6.35509 25.6344 6.60353L25.4977 7.42431L25.2815 7.12694C24.6122 6.20454 23.12 5.89638 21.6304 5.89638C18.2139 5.89638 15.2963 8.35293 14.7279 11.7991C14.4326 13.5178 14.8524 15.1614 15.8794 16.3078C16.8217 17.3617 18.1698 17.8009 19.7734 17.8009C22.5259 17.8009 24.0526 16.1203 24.0526 16.1203L23.9146 16.9361C23.8626 17.248 24.1156 17.5276 24.4449 17.5276H27.2298C27.6727 17.5276 28.0462 17.2227 28.1161 16.808L29.787 6.76196C29.8399 6.45297 29.5878 6.17219 29.2576 6.17219ZM24.9482 11.8849C24.6498 13.5617 23.248 14.6874 21.4605 14.6874C20.5628 14.6874 19.845 14.414 19.3846 13.896C18.9277 13.3817 18.7538 12.6493 18.8993 11.8339C19.178 10.1712 20.6034 9.00906 22.3638 9.00906C23.2414 9.00906 23.9552 9.28569 24.4253 9.80827C24.8962 10.3362 25.0831 11.0728 24.9482 11.8849ZM42.6156 6.17178H45.7224C46.1574 6.17178 46.4113 6.63505 46.164 6.9739L35.8315 21.1342C35.6642 21.3635 35.3886 21.5 35.0941 21.5H31.9913C31.5544 21.5 31.2993 21.033 31.5523 20.6933L34.7696 16.3816L31.3478 6.8474C31.2294 6.51601 31.4872 6.17178 31.8585 6.17178H34.9111C35.3077 6.17178 35.6576 6.41896 35.7721 6.77938L37.588 12.5377L41.873 6.54546C42.0407 6.31154 42.3194 6.17178 42.6156 6.17178Z" fill="#253B80"/>
  <path fill-rule="evenodd" clip-rule="evenodd" d="M76.3 16.9369L78.9494 0.932168C78.99 0.683735 79.2168 0.500829 79.4802 0.5H82.4629C82.7923 0.5 83.0452 0.780368 82.9932 1.0906L80.3805 16.807C80.3123 17.2218 79.9367 17.5266 79.4941 17.5266H76.8303C76.5009 17.5266 76.248 17.2471 76.3 16.9369ZM56.0094 0.500831H49.5525C49.1117 0.500831 48.7361 0.805669 48.667 1.21959L46.0561 16.9369C46.0041 17.2471 46.257 17.5266 46.5868 17.5266H49.8998C50.2078 17.5266 50.4712 17.3134 50.5192 17.0231L51.2601 12.5679C51.3283 12.1527 51.7048 11.8483 52.1456 11.8483H54.1882C58.4417 11.8483 60.8954 9.89444 61.5371 6.02278C61.8267 4.32895 61.5485 2.99802 60.7132 2.06567C59.7963 1.04249 58.17 0.500831 56.0094 0.500831ZM56.7542 6.24135C56.4021 8.44075 54.632 8.44075 52.9196 8.44075H51.9464L52.6309 4.33309C52.6715 4.08508 52.8961 3.90217 53.1612 3.90217H53.6077C54.7727 3.90217 55.8735 3.90217 56.4414 4.533C56.7804 4.90959 56.8835 5.46867 56.7542 6.24135ZM75.3053 6.17084H72.216C71.9504 6.17084 71.725 6.35374 71.6853 6.60218L71.5485 7.42297L71.3314 7.12559C70.6622 6.20319 69.1708 5.89503 67.6812 5.89503C64.2647 5.89503 61.348 8.35158 60.7796 11.7977C60.4852 13.5164 60.9033 15.1601 61.9303 16.3064C62.8743 17.3603 64.2206 17.7995 65.8242 17.7995C68.5767 17.7995 70.103 16.119 70.103 16.119L69.9654 16.9348C69.9135 17.2467 70.1664 17.5262 70.4979 17.5262H73.2815C73.7222 17.5262 74.0979 17.2214 74.1669 16.8066L75.8387 6.76061C75.8898 6.45163 75.6369 6.17084 75.3053 6.17084ZM70.9964 11.8836C70.6998 13.5604 69.2962 14.686 67.5082 14.686C66.6123 14.686 65.8932 14.4127 65.4324 13.8947C64.9755 13.3804 64.8038 12.648 64.9475 11.8326C65.2275 10.1698 66.6512 9.00771 68.4116 9.00771C69.2896 9.00771 70.003 9.28435 70.4735 9.80693C70.9461 10.3349 71.1331 11.0715 70.9964 11.8836Z" fill="#179BD7"/>
</svg>