<svg xmlns="http://www.w3.org/2000/svg" width="94" height="22" viewBox="0 0 94 22" fill="none">
  <path d="M38.9641 3.17078C38.1078 2.83163 36.7495 2.45715 35.07 2.45715C30.7824 2.45715 27.7631 4.73954 27.7446 8.00266C27.709 10.4102 29.9063 11.7474 31.5498 12.5501C33.2295 13.3704 33.8005 13.9058 33.8005 14.637C33.7834 15.7599 32.4432 16.2776 31.1931 16.2776C29.4597 16.2776 28.531 16.0107 27.1195 15.3859L26.5478 15.1181L25.9402 18.8808C26.9585 19.344 28.8346 19.7549 30.7824 19.7729C35.338 19.7729 38.3039 17.5259 38.339 14.0485C38.3563 12.1403 37.1961 10.6782 34.6946 9.48349C33.1761 8.71653 32.2461 8.19938 32.2461 7.41465C32.2639 6.70125 33.0327 5.97056 34.7468 5.97056C36.1583 5.93477 37.1954 6.27345 37.981 6.61237L38.3737 6.79037L38.9641 3.17078Z" fill="#3362AB"/>
  <path d="M23.2251 19.5231H18.8834L21.599 2.761H25.9405L23.2251 19.5231Z" fill="#3362AB"/>
  <path fill-rule="evenodd" clip-rule="evenodd" d="M50.0938 2.761H46.7356C45.6999 2.761 44.9131 3.06389 44.4663 4.15176L38.0173 19.5229H42.5729C42.5729 19.5229 43.3229 17.454 43.4841 17.0085H49.0585C49.1831 17.597 49.5765 19.5229 49.5765 19.5229H53.5965L50.0938 2.761ZM44.7346 13.5849C45.0921 12.6219 46.468 8.89499 46.468 8.89499C46.4607 8.90934 46.5167 8.75449 46.6001 8.5236L46.6011 8.52078L46.6018 8.51892C46.7264 8.17404 46.9114 7.66212 47.0392 7.29021L47.3426 8.73454C47.3426 8.73454 48.1648 12.7468 48.3433 13.5849H44.7346Z" fill="#3362AB"/>
  <path d="M15.2571 2.761L11.0051 14.1912L10.5405 11.873L10.5401 11.8716L9.02194 4.17001C8.77194 3.09944 8.00365 2.79631 7.05682 2.761H0.071463L0 3.09968C1.7037 3.53459 3.22751 4.1613 4.56268 4.94054L8.43243 19.5054H13.0237L19.848 2.761H15.2571Z" fill="#3362AB"/>
  <path d="M94 11C94 16.6339 89.442 21.192 83.8081 21.192C81.4299 21.192 79.25 20.371 77.523 19.012C79.9011 17.1435 81.4016 14.2558 81.4016 11C81.4016 7.74421 79.8728 4.85648 77.523 2.98794C79.25 1.62901 81.4299 0.807983 83.8081 0.807983C89.442 0.807983 94 5.39439 94 11Z" fill="#F79E1B"/>
  <path d="M77.523 2.98794C77.523 2.98794 77.523 2.98794 77.523 2.98794C79.8728 4.85648 81.4016 7.74421 81.4016 11C81.4016 14.2558 79.9011 17.1435 77.523 19.012L77.4946 19.012C75.1448 17.1718 73.616 14.2558 73.616 11C73.616 7.74427 75.1448 4.85654 77.4946 2.988C77.4946 2.98798 77.4947 2.98802 77.4946 2.988L77.523 2.98794Z" fill="#FF5F00"/>
  <path d="M73.616 11C73.616 7.74427 75.1448 4.85654 77.4946 2.988C75.7677 1.62907 73.5877 0.808027 71.2096 0.808027C65.5757 0.808027 61.0176 5.36612 61.0176 11C61.0176 16.6339 65.5757 21.192 71.2096 21.192C73.5877 21.192 75.7676 20.371 77.4946 19.012C75.1448 17.1718 73.616 14.2558 73.616 11Z" fill="#EB001B"/>
</svg>