<svg width="18" height="18" viewBox="0 0 18 18" fill="none" xmlns="http://www.w3.org/2000/svg">
<path fill-rule="evenodd" clip-rule="evenodd" d="M0 3.1395C0 1.4056 1.4056 0 3.1395 0H6.48831C8.22224 0 9.62782 1.4056 9.62782 3.1395V14.8603C9.62782 16.5942 8.22224 17.9998 6.48831 17.9998H3.1395C1.4056 17.9998 0 16.5942 0 14.8603V3.1395ZM3.1395 1.2558C2.09916 1.2558 1.2558 2.09916 1.2558 3.1395V14.8603C1.2558 15.9006 2.09916 16.744 3.1395 16.744H6.48831C7.52862 16.744 8.37201 15.9006 8.37201 14.8603V3.1395C8.37201 2.09916 7.52862 1.2558 6.48831 1.2558H3.1395Z" fill="black"/>
<path fill-rule="evenodd" clip-rule="evenodd" d="M9.41063 1.96019C10.6367 0.734137 12.6246 0.734137 13.8506 1.96019L16.2186 4.32815C17.4446 5.55421 17.4446 7.54206 16.2186 8.76806L9.563 15.4236L8.67506 14.5356L15.3306 7.88012C16.0662 7.14446 16.0662 5.95177 15.3306 5.21614L12.9626 2.84817C12.227 2.11254 11.0343 2.11254 10.2986 2.84817L9.563 3.5838L8.67506 2.69582L9.41063 1.96019Z" fill="black"/>
<path fill-rule="evenodd" clip-rule="evenodd" d="M14.8605 8.37219C16.5944 8.37219 18 9.77777 18 11.5117V14.8605C18 16.5944 16.5944 18 14.8605 18H4.8141V16.7442H14.8605C15.9008 16.7442 16.7442 15.9008 16.7442 14.8605V11.5117C16.7442 10.4714 15.9008 9.62799 14.8605 9.62799V8.37219Z" fill="black"/>
<path d="M5.65124 14.0232C5.65124 14.4856 5.27641 14.8604 4.81404 14.8604C4.35167 14.8604 3.97684 14.4856 3.97684 14.0232C3.97684 13.5609 4.35167 13.186 4.81404 13.186C5.27641 13.186 5.65124 13.5609 5.65124 14.0232Z" fill="black"/>
</svg>
