<svg xmlns="http://www.w3.org/2000/svg" width="40" height="40" viewBox="0 0 40 40">
<path fill-rule="evenodd" clip-rule="evenodd" d="M11 14.1395C11 12.4056 12.4056 11 14.1395 11H17.4883C19.2222 11 20.6278 12.4056 20.6278 14.1395V25.8603C20.6278 27.5942 19.2222 28.9998 17.4883 28.9998H14.1395C12.4056 28.9998 11 27.5942 11 25.8603V14.1395ZM14.1395 12.2558C13.0992 12.2558 12.2558 13.0992 12.2558 14.1395V25.8603C12.2558 26.9006 13.0992 27.744 14.1395 27.744H17.4883C18.5286 27.744 19.372 26.9006 19.372 25.8603V14.1395C19.372 13.0992 18.5286 12.2558 17.4883 12.2558H14.1395Z" fill="black"/>
<path fill-rule="evenodd" clip-rule="evenodd" d="M20.4106 12.9602C21.6367 11.7341 23.6246 11.7341 24.8506 12.9602L27.2186 15.3282C28.4446 16.5542 28.4446 18.5421 27.2186 19.7681L20.563 26.4236L19.6751 25.5356L26.3306 18.8801C27.0662 18.1445 27.0662 16.9518 26.3306 16.2161L23.9626 13.8482C23.227 13.1125 22.0343 13.1125 21.2986 13.8482L20.563 14.5838L19.6751 13.6958L20.4106 12.9602Z" fill="black"/>
<path fill-rule="evenodd" clip-rule="evenodd" d="M25.8605 19.3722C27.5944 19.3722 29 20.7778 29 22.5117V25.8605C29 27.5944 27.5944 29 25.8605 29H15.8141V27.7442H25.8605C26.9008 27.7442 27.7442 26.9008 27.7442 25.8605V22.5117C27.7442 21.4714 26.9008 20.628 25.8605 20.628V19.3722Z" fill="black"/>
<path d="M16.6512 25.0232C16.6512 25.4856 16.2764 25.8604 15.814 25.8604C15.3517 25.8604 14.9768 25.4856 14.9768 25.0232C14.9768 24.5609 15.3517 24.186 15.814 24.186C16.2764 24.186 16.6512 24.5609 16.6512 25.0232Z" fill="black"/>
</svg>