<svg width="40" height="40" viewBox="0 0 40 40" fill="none" xmlns="http://www.w3.org/2000/svg">
<rect width="40" height="40" rx="20" fill="#EDE2FF"/>
<path d="M20.2523 11H17.9888C17.8489 11 17.7106 11.0294 17.5827 11.0862L14.393 12.5038C14.1798 12.5986 14.0064 12.7649 13.9029 12.9741L11.5312 17.7664C11.2545 18.3254 11.5515 18.9984 12.1509 19.1709L15.3009 20.0775" stroke="#111111" stroke-width="1.4" stroke-linecap="round" stroke-linejoin="round"/>
<path d="M15.3008 17.0365V26.295C15.3008 26.8472 15.7485 27.295 16.3008 27.295H19.1887" stroke="#111111" stroke-width="1.4" stroke-linecap="round" stroke-linejoin="round"/>
<path d="M19.84 11H22.1035C22.2434 11 22.3817 11.0294 22.5096 11.0862L25.6993 12.5038C25.9125 12.5986 26.0859 12.7649 26.1894 12.9741L28.5611 17.7664C28.8377 18.3254 28.5408 18.9984 27.9414 19.1709L24.7914 20.0775V16.8408V22.0366" stroke="#111111" stroke-width="1.4" stroke-linecap="round" stroke-linejoin="round"/>
<path fill-rule="evenodd" clip-rule="evenodd" d="M24.833 24.0366C24.701 26.0422 23.0974 27.6458 21.0918 27.7778V27.7866V27.7954C23.0974 27.9274 24.701 29.531 24.833 31.5366H24.8418H24.8506C24.9826 29.531 26.5862 27.9274 28.5918 27.7954V27.7866L24.8418 27.7866H28.5918V27.7778C26.5862 27.6458 24.9826 26.0422 24.8506 24.0366H24.8418H24.833Z" fill="#9E6FEA"/>
<path d="M22.7831 11.8984C22.7831 12.891 21.5762 13.6956 20.0874 13.6956C18.5985 13.6956 17.3916 12.891 17.3916 11.8984" stroke="#111111" stroke-width="1.6" stroke-linecap="round"/>
</svg>
