<svg width="20" height="22" viewBox="0 0 20 22" fill="none" xmlns="http://www.w3.org/2000/svg">
<path d="M10.2523 1H7.98883C7.84892 1 7.71055 1.02936 7.5827 1.08619L4.39303 2.50382C4.1798 2.59859 4.00642 2.76494 3.90292 2.97407L1.53119 7.76638C1.25455 8.32536 1.55149 8.99842 2.15085 9.17092L5.30093 10.0775" stroke="#111111" stroke-width="1.4" stroke-linecap="round" stroke-linejoin="round"/>
<path d="M5.30081 7.0365V16.295C5.30081 16.8472 5.74853 17.295 6.30081 17.295H9.18869" stroke="#111111" stroke-width="1.4" stroke-linecap="round" stroke-linejoin="round"/>
<path d="M9.83997 1H12.1035C12.2434 1 12.3817 1.02936 12.5096 1.08619L15.6993 2.50382C15.9125 2.59859 16.0859 2.76494 16.1894 2.97407L18.5611 7.76638C18.8377 8.32536 18.5408 8.99842 17.9414 9.17092L14.7914 10.0775V6.84081V12.0366" stroke="#111111" stroke-width="1.4" stroke-linecap="round" stroke-linejoin="round"/>
<path fill-rule="evenodd" clip-rule="evenodd" d="M14.833 14.0366C14.701 16.0422 13.0974 17.6458 11.0918 17.7778V17.7866V17.7954C13.0974 17.9274 14.701 19.531 14.833 21.5366H14.8418H14.8506C14.9826 19.531 16.5862 17.9274 18.5918 17.7954V17.7866L14.8418 17.7866H18.5918V17.7778C16.5862 17.6458 14.9826 16.0422 14.8506 14.0366H14.8418H14.833Z" fill="#9E6FEA"/>
<path d="M12.7831 1.89844C12.7831 2.89099 11.5762 3.69561 10.0874 3.69561C8.59853 3.69561 7.3916 2.89099 7.3916 1.89844" stroke="#111111" stroke-width="1.6" stroke-linecap="round"/>
</svg>
