<svg xmlns="http://www.w3.org/2000/svg" width="40" height="40" viewBox="0 0 40 40" fill="none">
  <rect width="40" height="40" rx="20" fill="#FFDFE1"/>
  <path d="M13.8537 16.0371L12.1858 21.0357C12.0821 21.3465 12.243 21.6836 12.5499 21.7984L14.9702 22.7038" stroke="#111111" stroke-width="1.4" stroke-linecap="round" stroke-linejoin="round"/>
  <path d="M15 20V29.3913C15 29.7275 15.2725 30 15.6087 30H20" stroke="#111111" stroke-width="1.4" stroke-linecap="round" stroke-linejoin="round"/>
  <path d="M22.6349 14.1852C22.6349 15.4125 21.4338 16.4074 19.9523 16.4074C18.4707 16.4074 17.2696 15.4125 17.2696 14.1852" stroke="#111111" stroke-width="1.4"/>
  <path d="M13.8204 16.0371C13.8204 16.0371 15.8199 15.4901 17.2777 14.1508C18.3499 13.1657 19.2281 12.9591 20.0083 12.9591" stroke="#111111" stroke-width="1.4"/>
  <path d="M26.1463 16.0371L27.8142 21.0357C27.9179 21.3465 27.757 21.6836 27.4501 21.7984L25.0298 22.7038" stroke="#111111" stroke-width="1.4" stroke-linecap="round" stroke-linejoin="round"/>
  <path d="M25 20V29.3913C25 29.7275 24.7275 30 24.3913 30H20" stroke="#111111" stroke-width="1.4" stroke-linecap="round" stroke-linejoin="round"/>
  <path d="M26.1796 16.0371C26.1796 16.0371 24.1801 15.4901 22.7223 14.1508C21.6501 13.1657 20.7719 12.9591 19.9917 12.9591" stroke="#111111" stroke-width="1.4"/>
  <path d="M18.1513 9.47889C18.0093 9.83846 18.1857 10.2451 18.5453 10.3871C18.9049 10.5291 19.3115 10.3527 19.4535 9.9931L18.1513 9.47889ZM20.4018 10.1396C20.4018 10.2882 20.3175 10.4336 20.1641 10.5169L20.8319 11.7473C21.3995 11.4392 21.8018 10.8424 21.8018 10.1396H20.4018ZM19.9138 9.7C20.211 9.7 20.4018 9.92399 20.4018 10.1396H21.8018C21.8018 9.09644 20.9287 8.3 19.9138 8.3V9.7ZM19.4535 9.9931C19.5161 9.83443 19.6886 9.7 19.9138 9.7V8.3C19.123 8.3 18.4284 8.77721 18.1513 9.47889L19.4535 9.9931ZM19.2138 11.8879V12.7037H20.6138V11.8879H19.2138ZM20.1641 10.5169C19.832 10.6971 19.2138 11.1349 19.2138 11.8879H20.6138C20.6138 11.9329 20.5919 11.9399 20.6258 11.9005C20.6628 11.8575 20.7324 11.8013 20.8319 11.7473L20.1641 10.5169Z" fill="#111111"/>
</svg>