<svg width="18" height="23" viewBox="0 0 18 23" fill="none" xmlns="http://www.w3.org/2000/svg">
<path d="M2.85368 8.03711L1.18581 13.0357C1.0821 13.3465 1.24304 13.6836 1.54993 13.7984L3.97021 14.7038" stroke="#111111" stroke-width="1.4" stroke-linecap="round" stroke-linejoin="round"/>
<path d="M4 12V21.3913C4 21.7275 4.27251 22 4.60867 22H9" stroke="#111111" stroke-width="1.4" stroke-linecap="round" stroke-linejoin="round"/>
<path d="M11.6349 6.18518C11.6349 7.41248 10.4338 8.4074 8.95227 8.4074C7.47068 8.4074 6.26962 7.41248 6.26962 6.18518" stroke="#111111" stroke-width="1.4"/>
<path d="M2.82036 8.03709C2.82036 8.03709 4.81991 7.49013 6.27767 6.15082C7.34985 5.16575 8.22812 4.95911 9.0083 4.95911" stroke="#111111" stroke-width="1.4"/>
<path d="M15.1463 8.03711L16.8142 13.0357C16.9179 13.3465 16.757 13.6836 16.4501 13.7984L14.0298 14.7038" stroke="#111111" stroke-width="1.4" stroke-linecap="round" stroke-linejoin="round"/>
<path d="M14 12V21.3913C14 21.7275 13.7275 22 13.3913 22H9" stroke="#111111" stroke-width="1.4" stroke-linecap="round" stroke-linejoin="round"/>
<path d="M15.1796 8.03709C15.1796 8.03709 13.1801 7.49013 11.7223 6.15082C10.6501 5.16575 9.77188 4.95911 8.9917 4.95911" stroke="#111111" stroke-width="1.4"/>
<path d="M7.15131 1.47889C7.00931 1.83846 7.1857 2.24507 7.54528 2.38707C7.90485 2.52906 8.31146 2.35268 8.45346 1.9931L7.15131 1.47889ZM9.40179 2.1396C9.40179 2.28818 9.31749 2.43361 9.16406 2.5169L9.83195 3.74732C10.3995 3.43925 10.8018 2.84236 10.8018 2.1396H9.40179ZM8.91376 1.7C9.21104 1.7 9.40179 1.92399 9.40179 2.1396H10.8018C10.8018 1.09644 9.92874 0.3 8.91376 0.3V1.7ZM8.45346 1.9931C8.51612 1.83443 8.68856 1.7 8.91376 1.7V0.3C8.12299 0.3 7.4284 0.777212 7.15131 1.47889L8.45346 1.9931ZM8.21376 3.88787V4.7037H9.61376V3.88787H8.21376ZM9.16406 2.5169C8.83204 2.69712 8.21376 3.13487 8.21376 3.88787H9.61376C9.61376 3.9329 9.59194 3.93988 9.62578 3.90054C9.66277 3.85754 9.73241 3.80135 9.83195 3.74732L9.16406 2.5169Z" fill="#111111"/>
</svg>
